<?xml version="1.0" encoding="iso-8859-1"?>
<!-- Generator: Adobe Illustrator 19.0.0, SVG Export Plug-In . SVG Version: 6.00 Build 0)  -->
<svg version="1.1" id="Layer_1" xmlns="http://www.w3.org/2000/svg" xmlns:xlink="http://www.w3.org/1999/xlink" x="0px" y="0px"
	 viewBox="0 0 351.281 351.281" style="enable-background:new 0 0 351.281 351.281;" xml:space="preserve">
<g>
	<path style="fill:#FCBC1D;" d="M296.21,54.891c16.02,16,28.89,35.16,37.56,56.48c8.07,19.84,12.51,41.54,12.51,64.27
		c0,12.3-1.3,24.3-3.78,35.86c-7.12,33.32-23.97,63.03-47.44,86.02c-11.33,11.11-24.22,20.66-38.3,28.27
		c-24.13,13.07-51.76,20.49-81.12,20.49c-2.86,0-5.7-0.07-8.52-0.21c-53.27-2.62-100.11-29.67-129.57-70.17
		C17.08,247.751,5,213.101,5,175.641c0-1.87,0.03-3.73,0.09-5.59c1.23-38.28,15.08-73.38,37.51-101.27
		c28.71-35.7,71.5-59.6,119.93-63.28c4.33-0.33,8.7-0.5,13.11-0.5c38.41,0,73.85,12.69,102.37,34.1
		C284.45,43.931,290.53,49.211,296.21,54.891z"/>
	<path style="opacity:0.25;enable-background:new    ;" d="M190.249,336.995c-19.96-7.05-38.22-17.72-53.98-31.21
		c-36.59-31.3-59.78-77.8-59.78-129.72c0-46.04,18.24-87.83,47.88-118.52c16.33-16.91,36.12-30.46,58.23-39.5
		c9.22-3.765,18.846-6.738,28.788-8.857c-11.529-2.458-23.483-3.763-35.745-3.763c-22.84,0-44.62,4.49-64.53,12.62
		c-22.11,9.04-41.9,22.59-58.23,39.5c-29.64,30.69-47.88,72.48-47.88,118.52c0,51.92,23.19,98.42,59.78,129.72
		c15.76,13.49,34.02,24.16,53.98,31.21c17.79,6.29,36.94,9.71,56.88,9.71c12.255,0,24.208-1.3,35.734-3.756
		C204.154,341.409,197.1,339.417,190.249,336.995z"/>
	<g>
		<path style="opacity:0.25;enable-background:new    ;" d="M255.729,135.54c-2.442-11.871,1.146-23.136,8.287-28.55
			c1.945-1.466,4.15-2.506,6.573-3.009c11.323-2.324,23.003,8.032,26.109,23.138c3.098,15.097-3.545,29.224-14.867,31.548
			c-3.62,0.752-7.296,0.191-10.692-1.404C263.911,153.872,257.846,145.805,255.729,135.54z"/>
		<path style="fill:#FCBC1D;" d="M255.729,135.54c-2.442-11.871,1.146-23.136,8.287-28.55c7.227,3.393,13.309,11.463,15.409,21.724
			c2.442,11.872-1.146,23.136-8.287,28.55C263.911,153.872,257.846,145.805,255.729,135.54z"/>
		<path style="fill:#333333;" d="M278.62,163.999c-3.228,0-6.488-0.743-9.607-2.208c-2.5-1.174-3.574-4.152-2.4-6.651
			c1.175-2.5,4.156-3.573,6.65-2.401c2.549,1.197,5.09,1.545,7.551,1.034c8.457-1.736,13.483-13.48,10.986-25.648
			c-2.501-12.166-11.75-20.981-20.206-19.245c-1.624,0.337-3.165,1.045-4.568,2.103c-5.813,4.407-8.389,13.874-6.399,23.55
			c0.557,2.705-1.186,5.348-3.891,5.905c-2.71,0.557-5.349-1.186-5.904-3.89c-2.792-13.577,1.197-26.743,10.164-33.541
			c2.603-1.962,5.485-3.278,8.578-3.92c14.011-2.874,28.367,9.25,32.022,27.027c3.648,17.781-4.768,34.582-18.761,37.453
			C281.447,163.855,280.037,163.999,278.62,163.999z"/>
	</g>
	<g>
		<path style="fill:#FFFFFF;" d="M297.309,98.958c-1.643,0-3.251-0.808-4.207-2.291c-6.344-9.84-13.878-18.92-22.393-26.99
			c-2.004-1.899-2.089-5.064-0.189-7.069c1.897-2.004,5.063-2.09,7.068-0.19c9.094,8.619,17.142,18.318,23.918,28.829
			c1.496,2.321,0.828,5.415-1.493,6.912C299.175,98.7,298.236,98.958,297.309,98.958z"/>
		<path style="fill:#FFFFFF;" d="M273.436,290.346c-1.336,0-2.668-0.532-3.652-1.584c-1.887-2.017-1.781-5.181,0.235-7.067
			c29.375-27.481,46.223-66.239,46.223-106.334c0-8.733-0.782-17.485-2.325-26.011c-0.492-2.717,1.313-5.319,4.029-5.811
			c2.723-0.49,5.318,1.312,5.811,4.03c1.649,9.112,2.485,18.463,2.485,27.792c0,42.852-18.002,84.271-49.391,113.637
			C275.887,289.899,274.659,290.346,273.436,290.346z"/>
		<path style="fill:#FFFFFF;" d="M252.404,306.807c-1.637,0-3.241-0.803-4.199-2.278c-1.503-2.316-0.845-5.413,1.472-6.916
			c2.555-1.658,5.086-3.417,7.525-5.226c2.218-1.647,5.35-1.181,6.995,1.035c1.646,2.218,1.182,5.349-1.036,6.995
			c-2.605,1.934-5.311,3.813-8.039,5.584C254.281,306.547,253.337,306.807,252.404,306.807z"/>
	</g>
	<path style="fill:#333333;" d="M175.641,351.281C78.792,351.281,0,272.489,0,175.641S78.792,0.001,175.641,0.001
		c96.848,0,175.64,78.792,175.64,175.64C351.28,272.489,272.488,351.281,175.641,351.281z M175.641,10.001
		C84.306,10.001,10,84.307,10,175.641s74.306,165.64,165.641,165.64c91.334,0,165.64-74.306,165.64-165.64
		S266.975,10.001,175.641,10.001z"/>
	<path style="opacity:0.25;enable-background:new    ;" d="M204.154,182.161c0,17.89-14.51,32.4-32.4,32.4
		c-3.51,0-6.89-0.56-10.06-1.6c12.96-4.23,22.33-16.42,22.33-30.8s-9.37-26.57-22.33-30.8c3.17-1.04,6.55-1.6,10.06-1.6
		C189.644,149.762,204.154,164.271,204.154,182.161z"/>
	<g>
		<path style="fill:#FCBC1D;" d="M99.495,259.024c-1.85,2.42-4.17,4.36-6.95,5.68c-12.11,5.75-28.15-2.7-35.82-18.86
			c-7.67-16.16-4.07-33.93,8.04-39.68c1.83-0.87,3.75-1.41,5.72-1.65c11.04-1.36,23.58,6.79,30.1,20.52
			C106.495,237.495,105.715,250.895,99.495,259.024z"/>
		<path style="opacity:0.25;enable-background:new    ;" d="M99.495,259.024c-11.05,1.37-23.59-6.79-30.1-20.51
			c-5.91-12.46-5.13-25.87,1.09-34c11.04-1.36,23.58,6.79,30.1,20.52C106.495,237.495,105.715,250.895,99.495,259.024z"/>
		<path style="fill:#333333;" d="M84.51,271.481c-12.337,0-25.414-8.986-32.299-23.492c-8.842-18.629-4.173-39.415,10.408-46.336
			c7.313-3.472,15.853-3.008,24.047,1.306c7.715,4.063,14.261,11.14,18.432,19.928c1.185,2.495,0.122,5.477-2.373,6.661
			c-2.493,1.185-5.477,0.121-6.66-2.373c-3.25-6.848-8.243-12.305-14.059-15.367c-5.338-2.811-10.7-3.209-15.1-1.121
			c-9.6,4.556-12.139,19.366-5.662,33.014c6.477,13.646,19.554,21.045,29.158,16.488c4.398-2.088,7.481-6.494,8.679-12.407
			c0.549-2.707,3.188-4.456,5.893-3.908c2.707,0.548,4.456,3.186,3.908,5.893c-1.838,9.075-6.878,15.984-14.192,19.456
			C91.463,270.755,88.016,271.481,84.51,271.481z"/>
	</g>
	<path style="fill:#333333;" d="M171.756,219.558c-20.621,0-37.397-16.776-37.397-37.397c0-2.761,2.238-5,5-5s5,2.239,5,5
		c0,15.107,12.29,27.397,27.397,27.397s27.397-12.291,27.397-27.397s-12.29-27.397-27.397-27.397c-4.976,0-9.846,1.346-14.085,3.892
		c-2.367,1.423-5.439,0.656-6.86-1.712c-1.422-2.367-0.655-5.439,1.712-6.861c5.793-3.48,12.444-5.32,19.233-5.32
		c20.621,0,37.397,16.776,37.397,37.397S192.377,219.558,171.756,219.558z"/>
	<path style="fill:#333333;" d="M169.759,100.182c-4.715,0-9.146-1.836-12.48-5.169c-1.952-1.953-1.952-5.119,0.001-7.071
		c1.951-1.953,5.118-1.953,7.071,0c1.444,1.445,3.365,2.24,5.408,2.24s3.964-0.796,5.409-2.24c2.981-2.982,2.981-7.835-0.001-10.818
		c-1.444-1.445-3.365-2.24-5.408-2.24s-3.964,0.795-5.408,2.24c-1.953,1.953-5.118,1.953-7.071,0
		c-1.953-1.952-1.953-5.118-0.001-7.071c3.334-3.334,7.766-5.169,12.48-5.169c4.714,0,9.146,1.836,12.479,5.169
		c6.881,6.882,6.881,18.079,0.001,24.96C178.904,98.346,174.473,100.182,169.759,100.182z"/>
	<path style="fill:#333333;" d="M232.147,280.552c-4.715,0-9.146-1.836-12.48-5.169c-1.952-1.953-1.952-5.119,0.001-7.071
		c1.951-1.953,5.118-1.953,7.071,0c1.444,1.445,3.365,2.24,5.408,2.24s3.964-0.795,5.408-2.24c1.445-1.445,2.241-3.366,2.241-5.409
		c0-2.043-0.796-3.964-2.24-5.409c-1.445-1.445-3.366-2.24-5.409-2.24s-3.964,0.795-5.408,2.24c-1.953,1.953-5.118,1.953-7.071,0
		c-1.953-1.952-1.953-5.118-0.001-7.071c3.334-3.334,7.766-5.169,12.48-5.169s9.146,1.836,12.48,5.169
		c3.333,3.333,5.169,7.766,5.169,12.48s-1.836,9.147-5.17,12.48C241.294,278.716,236.862,280.552,232.147,280.552z"/>
</g>
<g>
</g>
<g>
</g>
<g>
</g>
<g>
</g>
<g>
</g>
<g>
</g>
<g>
</g>
<g>
</g>
<g>
</g>
<g>
</g>
<g>
</g>
<g>
</g>
<g>
</g>
<g>
</g>
<g>
</g>
</svg>
