<?xml version="1.0" encoding="utf-8"?>
<!-- Uploaded to SVGRepo https://www.svgrepo.com -->
<!DOCTYPE svg PUBLIC "-//W3C//DTD SVG 1.1//EN" "http://www.w3.org/Graphics/SVG/1.1/DTD/svg11.dtd">
<svg width="1000px" height="1000px" viewBox="0 0 1000 1000" version="1.1" xmlns="http://www.w3.org/2000/svg" xmlns:xlink="http://www.w3.org/1999/xlink" x="0px" y="0px" enable-background="new 0 0 1000 1000" xml:space="preserve">

<g><g transform="translate(0.000000,511.000000) scale(0.100000,-0.100000)"><path d="M9026.7,4057.4c-79.9-55.3-61.5-149.6,63.5-313.5c290.9-387.2,463-848.2,504-1346.1c53.3-661.8-137.3-1298.9-538.8-1798.8c-86-106.5-114.7-159.8-114.7-206.9c0-133.2,155.7-186.4,260.2-90.1c112.7,104.5,301.2,385.2,417.9,622.8c219.2,450.7,297.1,823.6,278.7,1362.5c-12.3,368.8-38.9,528.6-147.5,854.4c-82,243.8-159.8,405.7-305.3,631C9247.9,4075.8,9147.5,4143.4,9026.7,4057.4z"/><path d="M8776.7,3584.1c-616.7-495.8-1686.2-876.9-2880.6-1030.5c-286.8-36.9-440.5-41-1589.9-41H3035.9l36.9-55.3c125-188.5,374.9-622.8,479.4-835.9c106.5-219.2,266.3-639.2,266.3-704.8c0-16.4-104.5-22.5-350.3-22.5h-348.3l-30.7,77.9c-90.1,219.2-247.9,551.1-356.5,749.9c-67.6,125-122.9,227.4-122.9,231.5c0,4.1,102.4,6.1,225.4,6.1c125,0,225.4,6.1,225.4,14.3c0,18.4-153.7,276.6-250,422l-79.9,116.8H2241c-270.4,0-491.7-4.1-491.7-8.2c0-6.2,84-137.3,186.4-293c102.4-155.7,254.1-420,336-590c260.2-528.6,364.7-899.4,366.7-1290.8c0-366.7-86-585.9-346.3-870.7c-415.9-461-604.4-901.5-604.4-1426c0-590,237.7-1149.4,743.7-1745.6c77.9-92.2,147.5-166,151.6-159.8c4.1,4.1-10.2,45.1-32.8,90.1c-22.5,43-77.9,186.5-122.9,315.5c-217.2,629-252,1200.6-104.5,1661.6c75.8,235.6,178.3,409.8,346.3,592.1c125,135.2,407.7,356.5,428.2,334c6.2-4.1-10.2-53.3-32.8-108.6c-67.6-155.7-129.1-422.1-143.4-614.6c-53.3-698.6,170-1270.3,700.7-1798.9c202.8-202.8,502-448.7,520.4-428.2c4.1,2-32.8,59.4-84,127c-206.9,274.5-366.7,604.4-458.9,948.6c-69.7,260.2-88.1,702.7-41,973.2c69.7,397.5,223.3,749.9,514.2,1188.3c254.1,381.1,301.2,510.2,315.5,850.3c14.3,438.4-88.1,835.9-364.7,1389.1l-155.7,311.4h952.7c987.5,0,1253.9-14.3,1671.8-84c526.6-88.1,922-215.1,1372.7-438.4c348.3-174.2,620.8-360.6,846.2-581.9l155.7-149.6l47.1,57.4c79.9,96.3,245.9,456.9,303.2,653.6c161.9,561.4,145.4,1249.8-43,1725.1c-59.4,149.6-182.4,370.8-258.2,461l-47.1,55.3L8776.7,3584.1z"/><path d="M149.2,2821.9L100,2783v-547v-547l49.2-38.9c84-67.6,223.3-38.9,266.3,57.4c24.6,53.3,32.8,960.9,10.2,1046.9c-14.3,53.3-104.5,106.5-178.2,106.5C218.8,2860.9,175.8,2842.4,149.2,2821.9z"/><path d="M622.4,2236v-479.4l139.3,61.5c75.8,34.8,176.2,79.9,225.4,102.4l86.1,36.9v276.6v274.5L856,2612.9c-120.9,57.4-221.3,104.5-225.4,104.5C626.5,2717.4,622.4,2500.3,622.4,2236z"/><path d="M1278.1,2236v-276.6h256.1h258.2l-24.6,47.1c-12.3,24.6-92.2,149.6-176.2,276.6c-151.6,227.4-153.7,229.5-233.6,229.5h-79.9V2236z"/></g></g>
</svg>