<?xml version="1.0" encoding="utf-8"?>
<!-- Uploaded to SVGRepo https://www.svgrepo.com -->
<!DOCTYPE svg PUBLIC "-//W3C//DTD SVG 1.1//EN" "http://www.w3.org/Graphics/SVG/1.1/DTD/svg11.dtd">
<svg width="1000px" height="1000px" viewBox="0 0 1000 1000" version="1.1" xmlns="http://www.w3.org/2000/svg" xmlns:xlink="http://www.w3.org/1999/xlink" x="0px" y="0px" enable-background="new 0 0 1000 1000" xml:space="preserve">

<g><g transform="translate(0.000000,511.000000) scale(0.100000,-0.100000)"><path d="M4899,3743.1c-289.2-291.2-742.4-510.7-1281.8-617.3c-205.1-39-859.3-51.3-1181.3-20.5l-176.4,18.5l-24.6-155.9c-53.3-356.9-67.7-674.7-57.4-1181.3c14.4-724,86.1-1175.1,283-1769.9c291.2-890.1,791.6-1599.7,1507.4-2139.1c100.5-75.9,211.2-149.7,246.1-164.1c96.4-39,869.6-59.5,1269.5-30.8l326.1,22.6l137.4,90.2c196.9,131.2,479.9,373.2,664.5,570.1c834.7,883.9,1261.3,2098,1261.3,3584.9c0,373.3-36.9,888-77.9,1082.9c-16.4,73.8-20.5,75.9-98.4,71.8c-43.1-2-203-12.3-350.7-20.5c-939.3-55.4-1714.5,176.4-2210.8,660.4c-63.6,61.5-119,112.8-119,112.8C5013.9,3858,4960.6,3804.6,4899,3743.1z M5095.9,2768.9c217.4-231.7,660.4-418.4,1117.7-471.7c203-22.6,621.4-16.4,769.1,14.4c59.5,12.3,65.6,8.2,75.9-57.4c8.2-36.9,18.5-229.7,26.7-426.6c34.9-939.3-176.4-1774-621.4-2450.8c-164.1-248.1-572.2-664.5-814.2-828.6c-88.2-61.5-264.6-164.1-391.7-229.7l-233.8-119l-129.2,57.4c-354.8,162-648.1,369.2-939.3,658.3c-260.5,262.5-416.3,475.8-584.5,806c-211.2,420.4-346.6,900.3-402,1421.3c-24.6,244.1-16.4,1037.7,12.3,1132.1c14.4,45.1,20.5,45.1,141.5,30.8c219.4-28.7,705.5-16.4,902.4,22.6c352.8,67.7,678.8,219.4,886,410.2c55.4,51.3,106.6,92.3,112.8,94.3C5030.3,2832.5,5061.1,2803.8,5095.9,2768.9z"/><path d="M477.4-574C352.3-602.7,182-715.5,136.9-797.5c-20.5-39-36.9-104.6-36.9-147.7c0-73.8,2.1-75.9,131.3-118.9c71.8-22.6,196.9-49.2,276.9-59.5l145.6-14.3v293.3C653.7-512.4,666-532.9,477.4-574z"/><path d="M9349.4-844.7v-293.3l155.9,16.4c84.1,8.2,207.1,36.9,270.7,63.6c104.6,41,116.9,51.3,123,110.8c14.4,155.8-133.3,303.5-369.2,367.1C9337.1-528.8,9349.4-512.4,9349.4-844.7z"/><path d="M2079.1-729.8c-194.8-41-412.2-129.2-656.3-262.5c-578.3-322-783.4-371.2-1148.5-276.9c-88.2,22.6-164.1,41-168.2,41c-2,0-6.1-160-6.1-352.8c0-240,8.2-371.2,26.7-406.1c12.3-28.7,71.8-73.8,127.2-102.5c96.4-49.2,121-51.3,420.4-51.3c332.2,2.1,492.2,28.7,658.3,114.8c67.7,32.8,80,51.3,98.4,145.6c84.1,395.8,422.5,703.4,945.5,859.3c84.1,24.6,155.9,47.2,160,49.2c4.1,4.1-26.7,65.6-67.7,141.5c-73.8,133.3-75.9,135.4-160,133.3C2261.6-697,2159.1-711.4,2079.1-729.8z"/><path d="M7571.3-826.2c-36.9-73.8-69.7-141.5-71.8-147.6c-4.1-6.2,71.8-36.9,168.2-67.7c324-104.6,576.3-268.7,726-473.7c84.1-112.8,166.1-307.6,180.5-430.7c4.1-41,28.7-59.5,127.2-98.4c369.2-147.7,976.2-141.5,1144.4,10.3c32.8,28.7,36.9,73.8,36.9,420.4c0,360.9-2.1,387.6-34.9,377.4c-461.4-139.5-670.6-100.5-1283.8,248.2c-274.8,155.9-561.9,256.4-810.1,285.1l-116.9,12.3L7571.3-826.2z"/><path d="M2448.2-1246.7c-168.2-47.2-389.7-168.2-518.9-281c-102.5-90.3-106.7-96.4-73.8-133.3c75.9-84.1,537.3-278.9,906.5-383.5l147.7-41v272.8v272.8l-114.8,166.1C2665.6-1187.2,2661.5-1185.1,2448.2-1246.7z"/><path d="M7212.4-1406.6l-139.5-198.9v-229.7c0-127.1,6.2-235.8,16.4-240c22.6-14.4,438.9,114.8,660.4,205.1c106.7,45.1,250.2,116.9,317.9,160l123,77.9l-92.3,80c-180.5,160-461.4,299.4-668.6,332.2l-80,12.3L7212.4-1406.6z"/><path d="M1785.8-2452.6l6.2-547.6l82-47.2c211.2-121,773.2-311.7,1181.3-404c682.9-151.7,1035.7-186.6,1936-186.6c812.1,0,1007,16.4,1609.9,125.1c490.2,90.2,1019.3,248.2,1384.3,416.3l174.3,82v553.7c0,305.6-4.1,555.8-8.2,555.8c-4.1,0-84.1-36.9-178.4-80c-490.2-229.7-1306.4-432.7-2079.6-518.9c-381.5-41-1542.3-34.9-1917.6,10.3c-762.9,94.4-1398.7,254.3-1946.3,488.1c-127.2,55.4-235.8,100.5-240,100.5C1783.8-1905,1783.8-2151.1,1785.8-2452.6z"/></g></g>
</svg>