<?xml version="1.0" encoding="utf-8"?>

<!DOCTYPE svg PUBLIC "-//W3C//DTD SVG 1.1//EN" "http://www.w3.org/Graphics/SVG/1.1/DTD/svg11.dtd">
<svg width="1000px" height="1000px" viewBox="0 0 1000 1000" version="1.1" xmlns="http://www.w3.org/2000/svg" xmlns:xlink="http://www.w3.org/1999/xlink" x="0px" y="0px" enable-background="new 0 0 1000 1000" xml:space="preserve">

<g><g transform="translate(0.000000,511.000000) scale(0.100000,-0.100000)"><path d="M7754,4655.6l-471.8-360.3V4144l-2-151.3l-653-804.2l-652.9-802.2l-115.5-39.8c-306.6-103.5-487.7-326.5-555.4-686.8c-15.9-95.5-41.8-149.3-101.5-225c-43.8-53.8-85.6-99.5-93.6-99.5c-10,0-15.9,33.8-15.9,73.7v73.6l-133.4-141.3c-99.5-105.5-155.3-147.3-215-163.2c-203.1-53.8-354.3-7.9-535.5,167.2c-185.1,179.2-310.5,248.8-445.9,248.8c-226.9,0-372.3-139.4-688.8-668.9l-129.4-215l33.8-57.7c115.5-195.1,396.2-424,597.2-485.7c61.7-17.9,115.5-35.8,119.4-35.8c10-6-61.7-288.6-73.7-288.6c-6,0-29.9,31.8-49.8,69.7c-27.9,51.8-59.7,75.6-129.4,99.5c-115.5,37.8-280.7,147.3-396.1,262.8c-47.8,47.8-89.6,85.6-93.6,81.6c-47.8-53.8-129.4-242.9-129.4-298.6c0-81.6-2-79.6,342.4-487.7c139.4-165.2,254.8-306.6,254.8-314.5c0-6-372.3-469.8-826.1-1029.2c-700.7-864-826.1-1027.2-826.1-1080.9c0-81.6,53.8-129.4,143.3-129.4c69.7,0,87.6,19.9,873.9,989.4c441.9,543.5,810.2,995.4,816.2,1005.3c6,11.9,53.7-23.9,103.5-77.6c83.6-87.6,97.6-95.5,181.2-93.6c87.6,2,87.6,2,59.7-43.8c-53.7-79.6-163.2-103.5-268.7-59.7c-21.9,10-57.7-17.9-125.4-99.5c-109.5-133.4-115.5-121.4,137.4-207c312.5-105.5,465.8-129.4,856-129.4c272.7,0,398.1,7.9,527.5,35.8c189.1,39.8,579.3,165.2,625.1,201.1c27.9,19.9,21.9,53.8-47.8,300.6c-107.5,374.2-280.7,1061-368.3,1463.1c-39.8,181.2-73.7,336.4-77.6,346.4c-2,10-270.7-310.5-599.2-712.7l-593.2-730.6l-53.8,85.6c-29.9,47.8-47.8,95.5-39.8,105.5c8,11.9,814.2,1005.3,1791.6,2209.7C6687,2808.2,7487.3,3795.6,7489.3,3797.6c2,2,79.6,19.9,173.2,39.8l167.2,35.8l205,565.3c113.5,310.6,201.1,567.3,197.1,571.3C8227.8,5013.9,8012.8,4854.7,7754,4655.6z"/><path d="M4300.2,3365.6c-127.4-77.6-252.8-340.4-354.3-746.5c-49.8-201.1-61.7-226.9-145.3-312.5c-55.7-57.7-81.6-101.5-71.7-113.5c33.8-27.9,151.3-61.7,226.9-61.7c175.2-2,153.3-91.6-45.8-187.1c-147.3-71.7-330.5-217-306.6-240.9c8-8,41.8-4,77.6,7.9c85.6,29.9,185.1,27.9,262.8-4c35.8-15.9,153.3-101.5,262.8-193.1c221-183.1,320.5-236.9,437.9-238.9c69.7,0,87.6,11.9,169.2,101.5c143.3,165.2,224.9,244.8,276.7,278.7l47.8,29.9l-87.6,191.1c-85.6,191.1-117.5,222.9-117.5,117.4c0-85.6-101.5-264.8-177.2-314.5c-95.6-63.7-236.9-61.7-316.5,4c-69.7,59.7-141.3,215-157.3,346.4l-10,95.6l145.3,13.9c368.3,35.8,722.6,139.3,856,248.8l67.7,57.7l-89.6,21.9c-49.8,13.9-99.5,27.9-113.5,31.9c-11.9,4-85.6,135.4-163.2,292.6C4722.2,3307.9,4507.2,3491,4300.2,3365.6z"/><path d="M5964.4,1605.9l-589.2-726.6l77.6-374.2c205.1-989.4,619.1-2462.5,824.2-2922.3c79.6-181.2,161.2-246.9,240.9-193.1c67.7,43.8,121.4,250.8,185.1,700.7c115.4,804.2,298.6,2874.5,306.6,3473.7c4,242.9,0,266.7-47.8,370.3c-63.7,135.4-175.2,262.8-294.6,340.4c-49.8,29.9-95.5,55.7-101.5,55.7C6557.6,2330.5,6286.9,2004,5964.4,1605.9z"/><path d="M5620-1722.6c-131.4-55.7-543.5-167.2-619.1-167.2c-25.9,0-47.8-8-47.8-17.9s49.8-77.6,109.5-151.3c117.5-145.3,115.5-131.4,57.7-328.5c-15.9-49.8-27.9-99.5-27.9-113.5c0-11.9,47.8-33.8,105.5-45.8l105.5-19.9l-65.7-881.9c-33.8-483.8-63.7-945.6-63.7-1025.2c-2-135.4,2-151.3,55.8-205c47.8-47.8,75.6-57.7,151.3-57.7c75.6,0,103.5,10,151.3,57.7c31.9,31.9,57.7,69.7,57.7,85.6c0,13.9,57.7,507.6,127.4,1096.9l127.4,1073l83.6,85.6l83.6,85.6l-69.7,185.1c-113.5,300.6-157.3,396.2-181.2,396.2C5749.4-1672.8,5685.7-1694.7,5620-1722.6z"/><path d="M3492-1706.6c-4-8-17.9-81.6-33.8-163.2c-23.9-143.3-29.9-153.3-155.3-284.7l-129.4-133.4l73.6-75.6l71.7-73.7l-276.7-1061c-153.3-583.3-278.7-1077-278.7-1094.9c0-69.7,75.6-161.3,155.3-185.1c63.7-17.9,87.6-15.9,139.3,10c35.8,17.9,75.7,51.7,91.6,77.6c13.9,23.9,191.1,501.7,392.2,1063L3908-2608.4l81.6,12c129.4,21.9,131.4,21.9,93.6,209l-31.8,169.2l73.7,143.3c81.6,165.2,85.6,185.1,33.8,185.1c-59.7,0-398.1,93.6-533.5,147.3C3555.7-1716.6,3496-1700.6,3492-1706.6z"/></g></g>
</svg>
