<?xml version="1.0" encoding="utf-8"?>
<!-- Uploaded to SVGRepo https://www.svgrepo.com -->
<!DOCTYPE svg PUBLIC "-//W3C//DTD SVG 1.1//EN" "http://www.w3.org/Graphics/SVG/1.1/DTD/svg11.dtd">
<svg width="1000px" height="1000px" viewBox="0 0 1000 1000" version="1.1" xmlns="http://www.w3.org/2000/svg" xmlns:xlink="http://www.w3.org/1999/xlink" x="0px" y="0px" enable-background="new 0 0 1000 1000" xml:space="preserve">

<g><g transform="translate(0.000000,511.000000) scale(0.100000,-0.100000)"><path d="M3721.3,4964.7c8.2-26.7,53.5-121.4,98.7-209.8c74.1-141.9,209.8-302.4,1026.4-1209.5c518.3-573.9,942.1-1053.2,942.1-1061.4c0-10.3-59.6-70-133.7-135.8c-133.7-117.3-164.6-181-98.7-205.7c35-14.4,37-12.3,253,181c72,65.8,135.8,111.1,137.8,100.8c4.1-12.3-74-195.4-174.8-409.3L5587,1628.3l-376.4-220.1c-281.8-166.6-382.6-218-407.3-203.6c-76.1,45.3-100.8,76.1-109,133.7c-6.2,57.6-2,61.7,92.6,76.1c111.1,14.4,259.2,94.6,320.9,172.8c55.6,72,115.2,232.4,92.6,253c-10.3,8.2-119.3,59.6-244.8,113.1c-123.4,53.5-234.5,104.9-242.7,113.1c-8.2,8.2,72,51.4,181,94.6c107,43.2,195.4,90.5,195.4,104.9c0,41.1-164.6,174.8-279.8,228.3c-294.1,133.7-621.2,45.3-754.9-205.7c-35-67.9-45.3-121.4-45.3-240.7c0-170.7,45.3-283.9,156.3-403.2c55.5-57.6,57.6-67.9,37-129.6c-14.4-37-111.1-207.8-216-376.4c-166.6-269.5-189.2-316.8-179-376.4l10.3-69.9l-152.2,12.3l-154.3,12.3l-24.7-185.1C3416.9-15.2,3513.6-568.6,3746-965.5c107-183.1,339.4-436.1,499.8-545.1c133.7-90.5,318.8-185.1,462.8-236.6l104.9-35l152.2,76.1c84.3,41.1,183.1,98.7,220.1,125.5c35,26.7,70,49.4,76.1,49.4c30.8,0-117.2-248.9-205.7-347.6c-86.4-96.7-273.6-228.3-327.1-228.3c-10.3,0-22.6,30.8-24.7,69.9c-4.1,72-39.1,152.2-104.9,236.6l-39.1,49.4l-47.3-96.7c-92.6-195.4-240.7-347.6-399.1-413.4l-72-30.9l-22.6,109c-12.3,57.6-39.1,144-61.7,189.2c-35,74-37,76.1-39.1,28.8c-2.1-78.2-109-213.9-218-275.6c-84.3-49.4-312.7-133.7-362-133.7c-10.3,0,0,37,22.6,84.3c57.6,113.1,123.4,372.3,123.4,491.6c0,133.7-45.3,271.5-131.6,397c-39.1,59.7-86.4,148.1-104.9,197.5c-35,102.9-41.1,357.9-8.2,493.7c10.3,49.4,16.5,92.6,12.3,96.7c-20.6,20.6-310.6-183.1-427.9-298.3c-146-146-236.6-302.4-298.3-508.1c-74.1-246.9-28.8-685,100.8-977.1l49.4-111.1l-263.3-483.4c-146-265.4-265.4-491.6-265.4-504c0-10.3,129.6-238.6,290-504l290-483.4l-8.2-150.1l-6.2-152.2h283.9c154.3-2,288,2.1,294.2,8.2c6.2,6.2-28.8,74.1-76.1,152.2c-69.9,117.3-512.2,1053.2-512.2,1086.1c0,8.2,16.4,12.3,39.1,12.3c69.9,0,360,160.4,489.6,271.5c113.1,96.7,292.1,298.3,407.3,456.7c37,51.4,84.3,67.9,493.7,168.7c814.6,201.6,1205.4,271.5,1561.2,281.8l183.1,4.1l341.5-660.3c294.2-571.9,362-717.9,491.6-1084c125.5-357.9,148.1-444.3,148.1-555.4v-133.7l189.2-8.2c102.9-4.1,236.6-4.1,296.2,0l109,8.2l-98.8,148.1c-127.5,187.2-347.6,812.5-619.2,1756.7L6543.5-2208l88.4,90.5c109,111.1,98.7,109,602.7,45.3l345.6-45.3l162.5-310.6l160.4-310.6l-141.9-59.6c-78.2-32.9-141.9-67.9-141.9-76.1c0-45.2,267.4-364.1,304.4-364.1c45.3,0,312.7,438.1,312.7,514.2c0,16.4-76.1,246.8-170.7,512.2L7897-1728.7l-394.9,115.2c-216,61.7-399,119.3-405.2,125.5c-8.2,6.2,37.1,117.3,96.7,246.8c156.3,331.2,154.3,300.3,18.5,327.1c-179,35-429.9,119.3-590.4,201.6c-166.6,82.3-454.6,275.7-580.1,388.8l-86.4,78.2l12.3,137.8L5979.9,30l135.8-123.4c183.1-170.7,514.2-386.7,707.6-469c185.1-76.1,442.3-146,538.9-146c63.8,0,70,8.2,113.1,123.4l45.3,121.4l-84.3,96.7c-164.6,187.2-244.8,432-205.7,635.6c24.7,131.7,78.2,189.3,141.9,154.3c39.1-20.6,43.2-32.9,28.8-88.4c-10.3-37-16.5-125.5-16.5-199.5c0-187.2,70-310.6,312.7-545.1c216-207.7,250.9-261.2,250.9-380.5c0-115.2,28.8-158.4,119.3-185.1c74.1-20.6,209.8-28.8,209.8-12.3c0,4.1-41.1,49.4-92.6,98.7c-90.5,90.5-92.6,94.6-90.5,224.2c2.1,183.1-67.9,376.5-228.3,629.5c-107,166.6-76.1,388.8,88.4,676.8c35,59.7,76.1,115.2,92.6,121.4c14.4,6.2,154.3,26.7,306.5,45.3l277.7,37l113.1,141.9l111.1,141.9l-109,69.9c-707.6,442.3-1618.9,244.8-2392.3-518.4c-102.9-100.8-226.3-238.6-275.6-302.4c-49.4-65.8-96.7-119.3-107-119.3c-10.3,0-18.5,26.7-18.5,61.7c0,72-80.2,456.7-102.9,493.7c-12.4,20.6-61.7,16.5-232.4-18.5c-261.2-51.4-306.5-53.5-298.3-12.3c4.1,16.5-20.6,51.4-53.5,78.2l-61.7,49.4l308.5,181c168.7,98.7,327.1,193.4,353.8,209.8c28.8,18.5,113.1,166.6,224.2,399.1l176.9,370.3l76.1-74.1c148.1-144,216-65.8,80.2,94.6c-65.8,80.2-88.5,121.4-84.4,164.6c8.2,67.9-43.2,174.8-96.7,203.6c-22.6,10.3-72,20.6-111.1,20.6c-84.3,0-113.1,47.3-55.5,88.4c22.6,14.4,96.7,80.2,164.6,144c107,102.9,121.4,123.4,102.8,158.4c-12.3,22.6-30.8,41.1-41.1,41.1s-82.3-53.5-158.4-121.4l-139.9-121.4l-925.7,1030.5C4568.8,4265.4,4116.3,4757,4071,4796.1c-90.5,74.1-316.8,213.9-345.6,213.9C3717.2,5010,3715.1,4989.4,3721.3,4964.7z M4974,408.5c109-35,407.3-49.4,508.1-20.6c69.9,18.5,76.1,2.1,92.6-250.9c32.9-495.7-133.7-981.2-429.9-1250.7c-121.4-111.1-308.6-232.4-360-232.4c-59.7,0-269.5,113.1-401.1,216C4060.7-875,3855-393.7,3855,110.3v189.2h129.6c257.1,2.1,536.9,94.6,652.1,216l45.3,47.3l92.6-59.7C4825.9,472.3,4916.4,429.1,4974,408.5z"/><path d="M3696.6,2792.6c-209.8-74.1-355.9-242.7-397-452.5c-12.3-65.8-26.7-141.9-32.9-174.8c-6.2-30.8-35-84.3-63.8-117.3c-65.8-78.2-146-80.2-267.4-8.2c-146,84.3-185.1,32.9-119.3-158.4c74.1-205.7,193.4-294.1,403.2-294.1c246.8,0,366.1,113.1,469,450.5c55.5,181,88.5,230.4,162.5,244.8c37,10.3,69.9,39.1,96.7,86.4c39.1,72,154.3,189.2,228.3,230.4c37,20.6,37,26.7,8.2,78.2C4112.1,2809,3890,2860.5,3696.6,2792.6z"/><path d="M8390.7,651.2l-267.4-32.9L8041,453.8c-111.1-220.1-113.1-323-4.1-483.4c119.3-174.8,205.7-415.5,211.9-586.2c4.1-119.3,12.4-148.1,49.4-179c59.7-47.3,109-47.3,154.3,4.1c32.9,37,35,70,26.7,308.5l-12.3,269.5l92.6,172.8c76.1,146.1,90.5,195.4,94.6,300.3c2.1,69.9,12.4,129.6,24.7,135.8c14.4,4.1,234.5,47.3,491.6,96.7c255.1,49.4,481.3,102.9,497.8,117.3c28.8,24.7,28.8,28.8-4.1,53.5C9608.4,702.7,8738.3,694.4,8390.7,651.2z M8357.8,322.1c22.6-22.6,47.3-72,53.5-111.1C8440,56.8,8314.6-9,8236.4,120.5c-49.4,80.2-51.4,133.7-8.2,195.4C8267.3,371.5,8306.3,373.6,8357.8,322.1z"/><path d="M1427.8-652.9c-234.5-65.8-425.8-267.4-501.9-526.6c-51.4-176.9-41.1-353.8,28.8-557.4c119.3-335.3,100.8-532.8-67.9-699.4c-107-107-207.8-160.4-413.5-216l-162.5-43.2l152.2-51.4c131.6-43.2,191.3-49.4,429.9-49.4c355.9,0,462.8,37,652.1,226.3c109,109,131.6,146,170.7,275.6c47.3,152.2,47.3,213.9,8.2,608.9c-22.6,236.5,63.8,325,318.8,314.7l152.2-6.2l26.7,109c16.5,57.6,51.4,154.3,80.2,211.9l53.5,104.9l-45.3,35c-111.1,82.3-302.4,189.2-403.2,228.3C1765.1-634.4,1547.1-617.9,1427.8-652.9z"/><path d="M4245.8-2814.8c-376.4-100.8-401.1-109-407.3-156.3c-16.5-133.7-139.9-425.8-263.3-621.2c-26.7-43.2-49.4-82.3-49.4-86.4c0-6.2,833.1-754.9,952.4-855.7c8.2-6.2-2.1-63.8-24.7-127.5l-39.1-113.1l176.9-10.3c98.7-6.2,218-6.2,263.3,0l84.3,8.2l-39.1,135.8c-39.1,129.6-59.7,154.3-450.5,578c-401.1,436.1-407.3,444.3-364.1,475.1c174.8,119.3,329.1,292.1,425.8,471.1c57.6,111.1,158.4,388.7,144,401.1C4651.1-2711.9,4465.9-2757.2,4245.8-2814.8z"/></g></g>
</svg>